<?xml version="1.0" encoding="iso-8859-1"?>
<!-- Generator: Adobe Illustrator 17.1.0, SVG Export Plug-In . SVG Version: 6.00 Build 0)  -->
<!DOCTYPE svg PUBLIC "-//W3C//DTD SVG 1.1//EN" "http://www.w3.org/Graphics/SVG/1.1/DTD/svg11.dtd">
<svg xmlns="http://www.w3.org/2000/svg" xmlns:xlink="http://www.w3.org/1999/xlink" version="1.1" id="Capa_1" x="0px" y="0px" viewBox="0 0 214.711 214.711" style="enable-background:new 0 0 214.711 214.711;" xml:space="preserve" width="512px" height="512px">
<path d="M107.356,0C48.16,0,0,48.159,0,107.355S48.16,214.711,107.356,214.711c59.195,0,107.354-48.159,107.354-107.355  S166.551,0,107.356,0z M107.356,204.711C53.674,204.711,10,161.037,10,107.355S53.674,10,107.356,10s97.354,43.674,97.354,97.355  S161.038,204.711,107.356,204.711z M155.92,121.548c0,30.751-25.018,55.769-55.768,55.769h-3.701  c-14.252,0-23.982-3.143-29.747-9.607c-1.837-2.061-1.656-5.222,0.405-7.06c2.061-1.837,5.221-1.656,7.06,0.405  c3.553,3.986,10.607,6.081,20.957,6.246c-6.875-9.142-8.158-31.25,4.438-45.772c12.765-14.719,35.267-16.43,45.09-10.641  c-2.075-8.659-6.614-16.365-12.836-22.338c-4.759,13.824-17.887,23.788-33.306,23.788c-19.421,0-35.221-15.8-35.221-35.221  s15.8-35.222,35.221-35.222c19.401,0,35.188,15.769,35.22,35.162C147.199,87.246,155.92,103.396,155.92,121.548z" fill="#FFFFFF"/>
<g>
</g>
<g>
</g>
<g>
</g>
<g>
</g>
<g>
</g>
<g>
</g>
<g>
</g>
<g>
</g>
<g>
</g>
<g>
</g>
<g>
</g>
<g>
</g>
<g>
</g>
<g>
</g>
<g>
</g>
</svg>
