<?xml version="1.0" encoding="iso-8859-1"?>
<!-- Generator: Adobe Illustrator 18.0.0, SVG Export Plug-In . SVG Version: 6.00 Build 0)  -->
<!DOCTYPE svg PUBLIC "-//W3C//DTD SVG 1.1//EN" "http://www.w3.org/Graphics/SVG/1.1/DTD/svg11.dtd">
<svg xmlns="http://www.w3.org/2000/svg" xmlns:xlink="http://www.w3.org/1999/xlink" version="1.1" id="Capa_1" x="0px" y="0px" viewBox="0 0 60 60" style="enable-background:new 0 0 60 60;" xml:space="preserve" width="512px" height="512px">
<g>
	<path d="M30,0C13.458,0,0,13.458,0,30s13.458,30,30,30s30-13.458,30-30S46.542,0,30,0z M43.054,36.241   c0.613,0.611,0.949,1.341,0.946,2.053l-0.006,0.38c-0.03,0.99-0.725,1.747-1.137,2.11c-1.438,1.269-2.17,3.347-1.911,5.426   c0.091,0.725-0.147,1.514-0.653,2.165c-1.194,1.536-2.688,3.033-4.461,4.48c2.891-4.21,4.371-8.686,4.401-13.376   c0.076-11.92-9.14-20.829-9.532-21.203l-0.689-0.656l-0.689,0.656c-0.393,0.374-9.608,9.283-9.532,21.203   c0.03,4.687,1.508,9.16,4.395,13.367c-1.538-1.257-2.869-2.55-3.97-3.875c-0.506-0.608-0.714-1.412-0.569-2.206   c0.448-2.463-0.524-4.967-2.421-6.229c-0.748-0.498-1.208-1.423-1.202-2.42l0.002-0.161c0.012-0.688,0.295-1.344,0.776-1.799   c1.42-1.343,2.086-3.478,1.737-5.57c-0.083-0.498-0.103-1.231,0.273-1.898c0.837-1.489,1.802-3.006,2.8-4.467l0.019-0.028   c0.073-0.107,0.148-0.211,0.222-0.317c0.271-0.392,0.545-0.786,0.832-1.187c0.131-0.183,0.261-0.359,0.392-0.539   c0.229-0.316,0.459-0.632,0.698-0.953c0.147-0.198,0.291-0.387,0.436-0.58c0.237-0.314,0.477-0.63,0.722-0.948   c0.136-0.177,0.271-0.351,0.405-0.522c0.34-0.436,0.685-0.873,1.039-1.314c0.026-0.033,0.056-0.071,0.082-0.104   c0.326-0.405,0.71-0.744,1.137-1.012l0.012-0.007c0.049-0.031,0.102-0.055,0.152-0.084c0.133-0.076,0.268-0.145,0.407-0.206   c0.054-0.024,0.11-0.046,0.165-0.068c0.12-0.048,0.242-0.09,0.365-0.127c0.065-0.02,0.13-0.04,0.197-0.057   c0.116-0.029,0.233-0.051,0.35-0.071c0.072-0.012,0.143-0.028,0.216-0.037c0.124-0.015,0.249-0.02,0.374-0.025   c0.058-0.002,0.115-0.01,0.174-0.01h0.001c0.061,0,0.121,0.008,0.182,0.01c0.123,0.005,0.247,0.01,0.37,0.025   c0.072,0.009,0.142,0.024,0.213,0.036c0.119,0.02,0.237,0.042,0.354,0.072c0.064,0.016,0.128,0.036,0.191,0.055   c0.127,0.038,0.252,0.081,0.376,0.131c0.052,0.021,0.103,0.041,0.154,0.064c0.148,0.066,0.293,0.14,0.435,0.222   c0.036,0.021,0.073,0.038,0.108,0.06l0.039,0.023c0.423,0.267,0.805,0.605,1.129,1.007c0.386,0.48,0.76,0.956,1.13,1.429   c0.13,0.166,0.261,0.336,0.394,0.508c0.238,0.308,0.47,0.614,0.7,0.919c0.155,0.205,0.308,0.407,0.465,0.618   c0.217,0.291,0.425,0.578,0.634,0.865c0.151,0.207,0.301,0.409,0.452,0.62c0.321,0.448,0.63,0.889,0.93,1.326   c1.023,1.485,2.017,3.028,2.879,4.543c0.352,0.62,0.474,1.283,0.345,1.868C41.012,32.575,41.612,34.803,43.054,36.241z    M21.79,39.48c-0.065-9.217,6.12-16.747,8.223-19.039c2.103,2.287,8.28,9.796,8.221,19.024c-0.039,6.119-2.805,11.887-8.222,17.155   C24.598,51.356,21.833,45.594,21.79,39.48z M27.442,14.549c-0.281-0.464-0.431-0.996-0.431-1.549c0-1.654,1.346-3,3-3s3,1.346,3,3   c0,0.555-0.151,1.088-0.433,1.552c-0.059-0.025-0.12-0.043-0.179-0.066c-0.117-0.046-0.233-0.091-0.352-0.13   c-0.116-0.038-0.233-0.069-0.351-0.101c-0.101-0.027-0.2-0.056-0.302-0.078c-0.163-0.036-0.328-0.061-0.493-0.083   c-0.061-0.008-0.12-0.021-0.181-0.028c-0.237-0.026-0.475-0.042-0.714-0.042c-0.238,0-0.476,0.016-0.713,0.042   c-0.06,0.006-0.118,0.019-0.177,0.027c-0.166,0.023-0.331,0.048-0.496,0.084c-0.025,0.005-0.052,0.007-0.077,0.013   c-0.075,0.017-0.146,0.044-0.22,0.063c-0.119,0.032-0.238,0.063-0.355,0.102c-0.117,0.038-0.232,0.083-0.347,0.128   C27.562,14.506,27.501,14.524,27.442,14.549z M38.015,20.232c-0.409-0.552-0.809-1.081-1.201-1.592   c-0.118-0.154-0.239-0.309-0.359-0.464c-0.467-0.602-0.922-1.18-1.338-1.699c-0.258-0.321-0.548-0.607-0.854-0.87   c0.48-0.78,0.749-1.672,0.749-2.608c0-2.757-2.243-5-5-5s-5,2.243-5,5c0,0.934,0.268,1.824,0.747,2.602   c-0.308,0.263-0.599,0.55-0.858,0.872h0c-0.419,0.521-0.876,1.102-1.346,1.707c-0.114,0.147-0.229,0.294-0.341,0.44   c-0.413,0.537-0.834,1.094-1.265,1.677c-0.021,0.028-0.043,0.056-0.063,0.084c0.775-8.249,6.187-14.825,8.127-16.94   c1.942,2.113,7.361,8.686,8.127,16.955C38.1,20.343,38.055,20.287,38.015,20.232z M2,30C2,15.037,13.797,2.779,28.579,2.036   c-2.327,2.492-9.212,10.792-8.761,21.267c-0.979,1.441-1.925,2.932-2.752,4.403c-0.522,0.93-0.696,2.038-0.502,3.207   c0.241,1.445-0.196,2.897-1.139,3.789c-0.869,0.822-1.38,1.994-1.402,3.218l-0.002,0.188c-0.011,1.656,0.791,3.224,2.093,4.091   c1.242,0.827,1.87,2.519,1.562,4.207c-0.251,1.378,0.113,2.778,0.999,3.844c2.253,2.709,5.354,5.281,9.23,7.664   C13.442,56.838,2,44.734,2,30z M32.117,57.912c4.184-2.572,7.465-5.361,9.755-8.31c0.829-1.066,1.214-2.393,1.058-3.64   c-0.178-1.432,0.301-2.841,1.25-3.678c1.13-0.997,1.774-2.259,1.813-3.551v-0.001C45.997,38.589,46,38.444,46,38.303   c0.006-1.25-0.539-2.485-1.533-3.478c-0.948-0.945-1.351-2.502-1.027-3.966c0.236-1.068,0.038-2.235-0.559-3.287   c-0.808-1.422-1.728-2.862-2.677-4.258c0.457-10.478-6.429-18.783-8.758-21.277C46.215,2.791,58,15.045,58,30   C58,44.727,46.57,56.825,32.117,57.912z" fill="#FFFFFF"/>
	<path d="M36,36.16c0-2.294-1.866-4.16-4.16-4.16H28.16C25.866,32,24,33.866,24,36.16v5.421c0,0.954,0.116,1.897,0.318,2.819   l-0.005,0.015l0.071,0.293c0.002,0.008,0.005,0.016,0.008,0.025c0.231,0.937,0.565,1.844,0.993,2.708   c0.036,0.074,0.075,0.146,0.113,0.219c0.176,0.339,0.366,0.669,0.571,0.992c0.058,0.092,0.114,0.185,0.174,0.276   c0.25,0.373,0.513,0.737,0.802,1.085c0.006,0.007,0.01,0.015,0.016,0.021l0.957,1.149c0.492,0.59,1.214,0.928,1.982,0.928h0   c0.768,0,1.491-0.338,1.983-0.929l0.956-1.147c0.295-0.354,0.564-0.727,0.819-1.108c0.059-0.089,0.114-0.18,0.171-0.271   c0.206-0.324,0.396-0.655,0.573-0.995c0.038-0.073,0.077-0.145,0.113-0.22c0.428-0.865,0.762-1.772,0.993-2.709   c0.002-0.008,0.006-0.016,0.008-0.025l0.071-0.293L35.682,44.4C35.884,43.478,36,42.535,36,41.581V36.16z M26,36.16   c0-1.191,0.969-2.16,2.16-2.16h3.681c1.191,0,2.16,0.969,2.16,2.16v5.421c0,0.024-0.003,0.048-0.003,0.073   C32.924,40.611,31.519,40,30,40s-2.924,0.611-3.997,1.654c0-0.024-0.003-0.048-0.003-0.073V36.16z M33.188,45.738   c-0.126,0.316-0.268,0.625-0.421,0.928c-0.033,0.065-0.066,0.13-0.1,0.194c-0.143,0.27-0.3,0.531-0.464,0.787   c-0.045,0.07-0.087,0.142-0.134,0.211c-0.205,0.305-0.423,0.6-0.656,0.881c-0.004,0.004-0.007,0.009-0.01,0.014l-0.956,1.147   c-0.152,0.183-0.345,0.21-0.447,0.21c-0.101,0-0.294-0.027-0.446-0.208l-0.957-1.149c-0.238-0.286-0.46-0.587-0.668-0.898   c-0.045-0.067-0.086-0.137-0.13-0.205c-0.166-0.258-0.323-0.522-0.468-0.795c-0.033-0.062-0.065-0.125-0.097-0.188   c-0.155-0.305-0.297-0.616-0.424-0.935c-0.012-0.029-0.025-0.058-0.036-0.087c-0.141-0.364-0.265-0.734-0.369-1.111   C27.073,42.985,28.457,42,30,42s2.927,0.985,3.595,2.535c-0.103,0.377-0.227,0.747-0.368,1.11   C33.214,45.676,33.201,45.707,33.188,45.738z" fill="#FFFFFF"/>
</g>
<g>
</g>
<g>
</g>
<g>
</g>
<g>
</g>
<g>
</g>
<g>
</g>
<g>
</g>
<g>
</g>
<g>
</g>
<g>
</g>
<g>
</g>
<g>
</g>
<g>
</g>
<g>
</g>
<g>
</g>
</svg>
